<mxfile host="app.diagrams.net" modified="2023-10-31T15:51:11.119Z" agent="Mozilla/5.0 (X11; Linux x86_64) AppleWebKit/537.36 (KHTML, like Gecko) Chrome/118.0.0.0 Safari/537.36 Edg/118.0.2088.61" version="22.0.8" etag="3ZXJLNvGhMrxdk32mVbD" type="github">
  <diagram name="PÃ¡gina-1" id="eEEIKHIEiMfVYr9WiDFE">
    <mxGraphModel>
      <root>
        <mxCell id="0" />
        <mxCell id="1" parent="0" />
      </root>
    </mxGraphModel>
  </diagram>
</mxfile>
